<svg width="450" height="450" viewBox="0 0 450 450" fill="none" xmlns="http://www.w3.org/2000/svg">
<path d="M345.187 75H104.812L75 104.813V345.187L104.812 375H345.187L375 345.187V104.813L345.187 75ZM318.75 318.75H131.25V131.25H318.75V318.75Z" fill="#1273EB"/>
<path d="M284.812 130.875L130.875 284.625V130.875H284.812Z" fill="#4A9BFF"/>
<path d="M319.125 130.875V170.625L170.625 319.125H130.875V318.938L319.125 130.875Z" fill="#4A9BFF"/>
<path d="M205.123 319.125L319.123 204.938V319.125H205.123Z" fill="#4A9BFF"/>
<path d="M345.187 75L318.938 131.063L375 104.813L345.187 75Z" fill="#0069EB"/>
<path d="M75 345.188L131.063 318.938L104.813 375L75 345.188Z" fill="#0069EB"/>
<path d="M104.814 75L131.064 131.063H318.939L345.189 75H104.814Z" fill="#3B8FF7"/>
<path d="M375 345.188L318.938 318.938L345.187 375L375 345.188Z" fill="#3B8FF7"/>
<path d="M319.186 130.814H285.005L130.814 284.783V319.186L319.186 130.814Z" fill="white"/>
<path d="M319.127 170.625V204.938L205.127 319.125H170.627L319.127 170.625Z" fill="white"/>
</svg>