<svg id="Layer_1" data-name="Layer 1" xmlns="http://www.w3.org/2000/svg" xmlns:xlink="http://www.w3.org/1999/xlink" width="512" height="512" viewBox="0 0 512 512">
  <defs>
    <style>
      .cls-1 {
        fill: url(#linear-gradient);
      }

      .cls-2 {
        fill: #fff;
      }
    </style>
    <linearGradient id="linear-gradient" x1="-4949.6" y1="900.91" x2="-4943.96" y2="891.37" gradientTransform="translate(247597 -44554.5) scale(50)" gradientUnits="userSpaceOnUse">
      <stop offset="0" stop-color="#6ac7ff"/>
      <stop offset="1" stop-color="#148aff"/>
    </linearGradient>
  </defs>
  <g id="Layer_2" data-name="Layer 2">
    <g id="Layer_1-2" data-name="Layer 1-2">
      <g id="Layer_2-2" data-name="Layer 2-2">
        <g id="Capa_1" data-name="Capa 1">
          <circle class="cls-1" cx="256" cy="256" r="256"/>
        </g>
      </g>
    </g>
  </g>
  <path class="cls-2" d="M323.11,132.26c-18-6.52-41.86-10.11-67.1-10.11s-49.09,3.59-67.11,10.11c-25.79,9.34-31.24,21.29-31.24,29.67V351c0,8.39,5.44,20.34,31.23,29.67,18,6.52,41.85,10.11,67.1,10.11a238.89,238.89,0,0,0,44.18-4c34.41-6.6,54.17-19.66,54.17-35.82V161.93C354.34,153.55,348.9,141.6,323.11,132.26Zm-129.7,12.41c16.62-6,38.85-9.32,62.59-9.32s46,3.31,62.59,9.33,22.5,12.85,22.5,17.25-5.91,11.26-22.5,17.26h0c-16.62,6-38.84,9.32-62.59,9.32s-46-3.31-62.59-9.32-22.5-12.85-22.5-17.26S176.82,150.68,193.41,144.67ZM341.14,351c0,3.57-3.76,7.82-10.28,11.66-7.95,4.69-19.43,8.56-33.18,11.19A225,225,0,0,1,256,377.57c-23.76,0-46-3.31-62.62-9.32S170.86,355.4,170.86,351V308.48a82.53,82.53,0,0,0,18,8.87c18,6.52,41.85,10.11,67.1,10.11s49.1-3.59,67.11-10.11a82.6,82.6,0,0,0,18-8.87V351Zm0-63.31c0,4.41-5.94,11.26-22.52,17.26s-38.86,9.32-62.61,9.32-46-3.31-62.62-9.32-22.53-12.85-22.53-17.26V245.61a82.53,82.53,0,0,0,18,8.87c18,6.52,41.85,10.11,67.1,10.11s49.1-3.59,67.11-10.11a82.6,82.6,0,0,0,18-8.87v42.07Zm0-62.87c0,4.41-5.94,11.26-22.52,17.26h0c-16.61,6-38.86,9.32-62.61,9.32s-46-3.31-62.62-9.32-22.53-12.85-22.53-17.26V182.73a82.53,82.53,0,0,0,18,8.87c18,6.52,41.86,10.12,67.1,10.12s49.09-3.6,67.11-10.12a82.6,82.6,0,0,0,18-8.87Z"/>
</svg>
